# xmcd
#
# Track frame offsets:
#	150
#	35758
#	49887
#	66419
#	99436
#	130751
#	148800
#	190876
#	219290
#	234624
#	268024
#	286395
#	315774
#
# Disc length: 4428 seconds
#
# Revision: 1
# Processed by: cddbd v1.5.2PL0 Copyright (c) Steve Scherf et al.
# Submitted via: EasyCDDAExtractor 15.2.5.1
#
DISCID=c4114a0d
DTITLE=Various Artist - Sunshine House Volume 1 CD2 BPM-HOUSE
DYEAR=2002
DGENRE=House
TTITLE0=Todd Terry - Set U Free
TTITLE1=Alain Bax - Can't Stop
TTITLE2=Supaspring - Foot In The Water
TTITLE3=Sugar Caine - From Midnite Till Dawn
TTITLE4=Just Us - What A Night
TTITLE5=Canova - Sweetness Bis
TTITLE6=H.A.N.Z. and Khetama With Howard Donald - Take Control
TTITLE7=Kenny Blake - I've Been Watching You
TTITLE8=Lorren Gayes - Salsa
TTITLE9=Sun Set Feat. Stephanie Pop - So Good
TTITLE10=Kool and The Gang Feat. Lauryn Hill - Summer
TTITLE11=The Weather Girls - Your Love
TTITLE12=Nerio's Dubwork Feat. Darryl Pandy - Sunshine and Happiness
EXTD=
EXTT0=
EXTT1=
EXTT2=
EXTT3=
EXTT4=
EXTT5=
EXTT6=
EXTT7=
EXTT8=
EXTT9=
EXTT10=
EXTT11=
EXTT12=
PLAYORDER=
